<?xml version="1.0" encoding="utf-8"?>
<!-- Generator: Adobe Illustrator 15.1.0, SVG Export Plug-In . SVG Version: 6.00 Build 0)  -->
<!DOCTYPE svg PUBLIC "-//W3C//DTD SVG 1.1//EN" "http://www.w3.org/Graphics/SVG/1.1/DTD/svg11.dtd">
<svg version="1.1" id="Layer_1" xmlns="http://www.w3.org/2000/svg" xmlns:xlink="http://www.w3.org/1999/xlink" x="0px" y="0px"
	 width="708.66px" height="708.66px" viewBox="0 0 708.66 708.66" enable-background="new 0 0 708.66 708.66" xml:space="preserve">
<g>
	<defs>
		<rect id="SVGID_1_" x="-130.173" y="-366" width="968.174" height="1576.631"/>
	</defs>
	<clipPath id="SVGID_2_">
		<use xlink:href="#SVGID_1_"  overflow="visible"/>
	</clipPath>
	<path clip-path="url(#SVGID_2_)" fill="#FFFFFF" d="M484.424,604.806c0.84,0.765,1.26,1.821,1.26,3.171
		c0,1.8-0.51,3.09-1.529,3.869c-1.021,0.78-2.385,1.17-4.094,1.17h-2.609v-9.133c0.33-0.09,0.802-0.148,1.417-0.18
		c0.614-0.029,1.237-0.045,1.867-0.045C482.354,603.658,483.584,604.041,484.424,604.806 M471.289,630.109h6.162v-12.911
		l3.239,0.585l7.152,12.326h7.108l-7.199-12.012l-2.204-1.394c2.009-0.63,3.614-1.755,4.813-3.374c1.199-1.62,1.8-3.718,1.8-6.297
		c0-1.74-0.338-3.188-1.012-4.342c-0.675-1.154-1.575-2.062-2.699-2.722c-1.125-0.659-2.4-1.124-3.824-1.394
		c-1.425-0.27-2.871-0.406-4.341-0.406c-0.629,0-1.32,0.016-2.068,0.045c-0.751,0.03-1.523,0.076-2.317,0.136
		s-1.59,0.143-2.384,0.248c-0.795,0.104-1.538,0.218-2.227,0.337V630.109z M441.195,611.217l0.945-4.994h0.225l0.944,4.947
		l2.34,7.018H438.9L441.195,611.217z M449.518,630.109h6.479l-11.336-31.714h-4.545l-11.335,31.714h6.163l2.385-6.974h9.67
		L449.518,630.109z M395.404,630.109h18.893v-5.488h-12.73v-7.691h11.381v-5.489h-11.381v-7.332h12.506v-5.487h-18.668V630.109z
		 M363.736,630.109h6.162v-11.74l10.303-19.748h-6.613l-5.578,11.74l-0.675,3.418h-0.225l-0.63-3.328l-5.758-11.83h-7.333
		l10.346,19.791V630.109z M301.076,630.109h18.893v-5.488h-12.73v-7.691h11.381v-5.489h-11.381v-7.332h12.505v-5.487h-18.668
		V630.109z M276.876,630.109h6.163v-31.488h-6.163v12.819H265.36v-12.819h-6.163v31.488h6.163v-13.18h11.516V630.109z
		 M243.409,598.621h-24.561v5.487h9.222v26.001h6.163v-26.001h9.176V598.621z"/>
	<path clip-path="url(#SVGID_2_)" fill="#FFFFFF" d="M453.656,573.879h6.162v-12.729h11.516v-5.487h-11.516v-7.783h12.506v-5.488
		h-18.668V573.879z M418.21,549.881c1.198-1.754,2.894-2.631,5.083-2.631c1.259,0,2.323,0.277,3.193,0.832s1.574,1.326,2.115,2.316
		c0.539,0.99,0.937,2.145,1.191,3.464c0.255,1.32,0.383,2.744,0.383,4.273c0,3.839-0.602,6.612-1.8,8.321
		c-1.2,1.709-2.894,2.564-5.083,2.564c-1.2,0-2.234-0.271-3.104-0.811c-0.871-0.539-1.582-1.288-2.137-2.248
		c-0.556-0.959-0.968-2.107-1.238-3.441c-0.27-1.334-0.404-2.796-0.404-4.386C416.41,554.387,417.01,551.635,418.21,549.881
		 M410.742,564.838c0.54,2.01,1.357,3.734,2.453,5.174c1.093,1.439,2.479,2.549,4.16,3.328c1.679,0.779,3.658,1.17,5.938,1.17
		c4.258,0,7.549-1.417,9.874-4.25c2.323-2.835,3.485-6.877,3.485-12.124c0-2.46-0.27-4.693-0.809-6.702
		c-0.54-2.01-1.365-3.734-2.475-5.174s-2.505-2.549-4.184-3.329c-1.68-0.778-3.643-1.169-5.893-1.169
		c-4.289,0-7.588,1.416-9.896,4.25c-2.31,2.834-3.463,6.877-3.463,12.124C409.934,560.595,410.203,562.829,410.742,564.838
		 M355.055,573.879h18.893v-5.486h-12.73v-7.693h11.381v-5.488h-11.381v-7.332h12.506v-5.488h-18.668V573.879z M330.899,573.879
		h6.163v-31.488h-5.578l-7.962,14.305l-1.349,3.689h-0.18l-1.484-3.6l-8.412-14.395h-5.622v31.488h5.847v-16.373l-0.9-6.208h0.225
		l1.979,4.993l7.063,11.785h1.979l6.703-11.74l1.934-5.038h0.27l-0.674,6.253V573.879z M281.688,573.879h6.163v-31.488h-6.163
		V573.879z M265.271,542.391h-24.561v5.488h9.222v26h6.163v-26h9.177V542.391z"/>
	<path clip-path="url(#SVGID_2_)" fill="#FFFFFF" d="M640.404,354.249c2.099-4.572,4.871-8.733,8.322-12.483
		c0,4.048-0.562,8.659-1.687,13.832c-1.125,5.174-2.513,10.347-4.161,15.52c-1.652,5.174-3.373,10.198-5.173,15.07
		c-1.8,4.873-3.452,9.107-4.948,12.707c-1.35,3.451-2.776,6.824-4.273,10.121c-1.501,3.3-3.301,6.449-5.398,9.447
		c0.45-17.393,4.196-34.188,11.246-50.382C636.279,363.436,638.304,358.824,640.404,354.249 M661.435,347.164
		c0.373-2.249,0.562-4.646,0.562-7.198c0-3.599-0.787-7.045-2.362-10.346c-1.574-3.296-4.463-4.948-8.659-4.948
		c-1.651,0-3.45,0.601-5.397,1.799c-6.6,3.75-12.146,9.671-16.645,17.769c-4.498,8.097-8.135,16.833-10.908,26.203
		c-2.776,9.372-4.762,18.595-5.961,27.665c-1.201,9.073-1.799,16.384-1.799,21.93c0,13.494,1.873,23.693,5.623,30.589
		c3.747,6.897,8.771,10.346,15.069,10.346c3.448,0,7.046-0.861,10.796-2.587c3.746-1.723,7.385-3.936,10.909-6.636
		c3.521-2.698,6.782-5.657,9.783-8.884c2.998-3.223,5.472-6.259,7.423-9.109c0.299-0.598,0.449-1.197,0.449-1.799
		c0-1.197-0.376-2.137-1.125-2.812c-0.751-0.675-1.65-1.013-2.697-1.013c-0.753,0-1.652,0.377-2.699,1.125
		c-4.352,5.398-9.223,9.936-14.62,13.607c-5.398,3.676-11.471,6.186-18.219,7.535c-3.45-2.25-5.549-5.285-6.298-9.109
		c-0.752-3.823-1.201-7.683-1.349-11.583c4.196-3.599,8.321-8.659,12.37-15.182s7.683-13.456,10.908-20.806
		c3.223-7.345,6.035-14.654,8.434-21.93c2.397-7.27,4.123-13.529,5.174-18.779C660.647,351.363,661.059,349.413,661.435,347.164
		 M552.128,404.967c-1.574,4.498-3.036,9.334-4.387,14.508c-1.349,5.173-2.438,10.311-3.261,15.406
		c-0.826,5.1-1.237,9.524-1.237,13.27c0,3.75,0.411,6.9,1.237,9.447c0.822,2.551,1.874,4.61,3.148,6.186
		c1.272,1.574,2.699,2.698,4.273,3.373c1.574,0.676,3.111,1.013,4.611,1.013c2.548,0,5.209-0.714,7.984-2.137
		c2.772-1.427,5.398-3.262,7.872-5.511s4.797-4.758,6.972-7.535c2.172-2.771,3.938-5.51,5.287-8.209
		c0.298,1.051,0.674,2.587,1.124,4.611c0.45,2.023,1.124,4.013,2.024,5.959c0.9,1.951,2.059,3.639,3.485,5.062
		c1.424,1.423,3.185,2.137,5.286,2.137c0.748,0,1.799-0.19,3.148-0.562c1.35-0.376,2.699-0.974,4.049-1.8
		c1.35-0.822,2.548-1.76,3.6-2.811c1.047-1.049,1.574-2.249,1.574-3.599c0-0.299-0.19-0.861-0.562-1.688
		c-0.376-0.823-0.938-1.237-1.688-1.237c-1.35,0-2.776,0.562-4.273,1.688c-1.501,1.125-2.775,1.688-3.822,1.688
		c-0.753,0-1.351-0.598-1.801-1.801c-0.449-1.197-0.826-2.621-1.125-4.273c-0.301-1.647-0.488-3.295-0.562-4.947
		c-0.077-1.648-0.112-2.998-0.112-4.049c0-4.347,0.336-8.469,1.012-12.371c0.675-3.896,1.012-7.119,1.012-9.67
		c0-2.099-0.601-3.785-1.799-5.061c-1.202-1.273-2.625-1.912-4.273-1.912c-1.799,0-3.525,1.09-5.173,3.262
		c-1.651,2.175-3.262,4.8-4.835,7.871c-1.576,3.075-3.188,6.297-4.836,9.672c-1.652,3.373-3.227,6.186-4.724,8.434
		c-1.351,2.102-3.075,4.126-5.173,6.074c-2.102,1.949-3.824,3.975-5.174,6.072v0.224c-1.051,0.753-2.249,1.501-3.6,2.25
		c-1.05-3.747-1.574-8.245-1.574-13.495c0-7.197,0.75-14.654,2.25-22.379c1.498-7.721,3.148-14.355,4.948-19.906
		c0.299-0.898,0.45-1.496,0.45-1.799c0-1.197-0.377-2.137-1.125-2.811c-0.752-0.676-1.574-1.013-2.474-1.013
		c-1.351,0-2.476,0.752-3.374,2.249C555.164,397.096,553.702,400.469,552.128,404.967 M514.904,357.959l1.574-4.498
		c-0.151,0.303-0.264,0.675-0.338,1.125c-0.077,0.449-0.262,0.977-0.561,1.574c-0.303,0.602-0.527,1.275-0.676,2.024V357.959z
		 M508.27,455.462c0.675-0.524,1.385-1.013,2.137-1.463c-0.752,4.948-2.137,9.633-4.16,14.058c-2.025,4.421-4.313,8.957-6.86,13.607
		v-19.118c1.198-0.9,2.361-1.835,3.485-2.812c1.125-0.973,2.285-1.912,3.486-2.812C506.955,456.473,507.595,455.988,508.27,455.462
		 M528.513,343.34c0.372,2.101,0.562,4.649,0.562,7.646c0,6-0.787,12.258-2.361,18.781c-1.574,6.523-3.637,12.82-6.186,18.893
		c-2.551,6.074-5.437,11.66-8.66,16.757c-3.225,5.099-6.486,9.222-9.783,12.37c1.199-10.796,2.885-21.289,5.061-31.488
		c2.172-10.195,5.061-20.467,8.66-30.813l0.674-2.249c1.048-2.847,2.285-5.96,3.711-9.334c1.424-3.374,2.96-5.659,4.611-6.86
		C526.898,339.144,528.137,341.242,528.513,343.34 M521.989,407.217c1.723-3.447,3.408-6.822,5.061-10.121
		c3.599-7.947,6.709-15.932,9.334-23.955c2.622-8.02,3.937-16.305,3.937-24.853c0-7.198-1.125-13.045-3.374-17.543
		c-2.249-4.499-5.999-6.748-11.245-6.748c-3.75,0-6.938,1.237-9.561,3.711c-2.624,2.474-4.912,5.549-6.858,9.221
		c-1.951,3.676-3.638,7.535-5.062,11.583c-1.427,4.048-2.664,7.647-3.711,10.796c-5.25,15.445-9.074,31.116-11.471,47.008
		c-2.4,15.896-3.524,32.016-3.374,48.357c-1.95,2.248-3.524,4.312-4.723,6.186c-1.202,1.873-1.8,3.559-1.8,5.06
		c0,1.649,0.523,2.96,1.575,3.937c1.046,0.973,2.474,1.462,4.272,1.462c-0.15,1.648-0.264,3.261-0.337,4.835
		c-0.077,1.576-0.112,3.186-0.112,4.836c0,2.549,0.147,5.248,0.449,8.098c0.299,2.847,0.788,5.473,1.463,7.873
		c0.674,2.396,1.648,4.347,2.924,5.847c1.271,1.497,2.885,2.249,4.836,2.249c2.248,0,4.385-0.863,6.41-2.586
		c2.023-1.726,3.896-3.789,5.623-6.186c1.721-2.4,3.296-4.948,4.723-7.646c1.423-2.699,2.66-5.1,3.711-7.198
		c0.748-1.5,1.647-3.411,2.699-5.735c1.047-2.326,2.059-4.801,3.036-7.422c0.974-2.625,1.8-5.285,2.474-7.984
		c0.676-2.699,1.014-5.246,1.014-7.647c0-2.099-0.377-4.122-1.125-6.073l-0.676-1.123c4.049-3.449,8.357-7.199,12.934-11.247
		c4.572-4.048,9.558-6.67,14.956-7.871c2.397-0.299,3.599-1.424,3.599-3.374c0-1.048-0.414-1.947-1.236-2.699
		c-0.826-0.749-1.838-1.125-3.037-1.125c-3.3,0.449-6.374,1.389-9.221,2.812c-2.851,1.427-5.623,3.075-8.322,4.948
		c-2.699,1.877-5.324,3.863-7.871,5.96c-2.553,2.103-5.174,4.049-7.873,5.849l-1.574,1.35c-0.451-0.148-1.202-0.225-2.25-0.225
		c-1.799,0-3.788,0.337-5.959,1.012c-2.176,0.674-4.313,1.612-6.41,2.811c0.147-2.098,0.26-4.083,0.336-5.959
		c0.074-1.875,0.187-3.859,0.338-5.961v2.699l0.675-6.074c2.099-2.098,4.499-4.16,7.197-6.184c2.698-2.025,4.948-3.937,6.747-5.735
		C517.977,413.738,520.264,410.668,521.989,407.217 M424.604,443.652c1.422-1.946,2.923-4.273,4.498-6.973
		c1.574-2.698,3.184-5.584,4.836-8.658c1.647-3.072,3.183-6.035,4.61-8.885c1.423-2.847,2.733-5.359,3.936-7.534
		c1.198-2.173,2.099-3.712,2.699-4.611c2.548,4.049,4.347,7.798,5.397,11.246c1.047,3.451,1.574,7.197,1.574,11.245
		c0,2.699-0.225,5.701-0.674,8.997c-0.303,2.552-0.826,5.1-1.574,7.647c-0.752,2.551-1.125,5.1-1.125,7.647
		c0,2.249,0.787,4.688,2.361,7.309c1.574,2.623,3.711,3.937,6.41,3.937h2.248c1.948-0.751,4.574-1.838,7.874-3.262
		c3.296-1.422,6.483-2.958,9.559-4.61c3.071-1.647,5.735-3.261,7.984-4.836c2.249-1.573,3.373-2.958,3.373-4.161
		c0-0.899-0.302-1.721-0.899-2.474c-0.6-0.749-1.5-1.124-2.699-1.124c-0.601,0-1.201,0.151-1.799,0.45
		c-3.451,1.349-6.898,2.698-10.346,4.048c-3.451,1.35-6.973,2.4-10.571,3.148c1.198-6.297,2.21-11.471,3.036-15.52
		c0.822-4.049,1.237-7.721,1.237-11.02c0-2.699-0.303-5.209-0.9-7.535c-0.601-2.323-1.573-4.723-2.923-7.197
		s-3.076-5.174-5.174-8.098c-2.102-2.924-4.648-6.41-7.646-10.458c-1.652-0.899-3.149-1.351-4.498-1.351
		c-1.652,0-3.076,0.602-4.275,1.801c-1.201,1.95-2.849,5.06-4.947,9.333c-2.102,4.274-4.273,8.812-6.521,13.608
		c-2.25,4.801-4.465,9.446-6.637,13.944c-2.175,4.498-3.936,7.948-5.285,10.347c-1.051,0.898-1.574,2.023-1.574,3.373
		c0,1.051,0.338,1.99,1.013,2.812c0.674,0.825,1.609,1.237,2.812,1.237c0.298,0,0.485-0.035,0.562-0.112
		c0.073-0.075,0.187-0.113,0.337-0.113C421.938,446.802,423.176,445.604,424.604,443.652 M402.9,407.666
		c-0.601,1.799-1.275,3.637-2.023,5.511c-0.752,1.876-1.574,3.599-2.475,5.173c-0.898,1.574-1.65,2.889-2.248,3.936
		c-2.699,4.65-4.949,7.799-6.748,9.447c0.598-2.396,1.423-5.021,2.475-7.873c1.047-2.846,2.172-5.622,3.373-8.321
		c1.199-2.698,2.548-5.208,4.049-7.534c1.496-2.323,2.997-4.084,4.498-5.286C403.801,404.219,403.498,405.867,402.9,407.666
		 M416.283,407.328c0.373-2.023,0.562-4.083,0.562-6.185c0-3.599-0.752-6.782-2.248-9.56c-1.502-2.772-4.352-4.16-8.547-4.16
		c-4.201,0-7.95,1.388-11.246,4.16c-3.301,2.777-6.15,6.15-8.547,10.121c-2.4,3.976-4.387,8.137-5.961,12.484
		c-1.574,4.35-2.811,8.096-3.711,11.245c-0.601,1.95-0.977,3.862-1.125,5.735c-0.15,1.876-0.225,3.711-0.225,5.51
		c-0.752,0.752-1.125,1.652-1.125,2.699c0,1.203,0.45,2.025,1.35,2.475c0,3.149,0.373,6.186,1.125,9.109
		c0.748,2.924,1.911,5.51,3.486,7.76c1.574,2.249,3.56,4.048,5.96,5.398c2.396,1.349,5.247,2.023,8.548,2.023
		c1.496,0,3.334-0.602,5.51-1.8c2.172-1.201,3.486-1.876,3.936-2.024c1.35-0.601,3.262-1.946,5.736-4.048
		c2.473-2.099,4.87-4.347,7.196-6.747c2.324-2.396,4.386-4.724,6.187-6.973c1.799-2.249,2.699-3.898,2.699-4.948
		c0-1.198-0.451-2.249-1.351-3.149c-0.899-0.898-1.876-1.349-2.925-1.349c-0.898,0-1.574,0.527-2.023,1.573
		c-0.899,1.951-2.288,3.863-4.16,5.735c-1.877,1.878-3.824,3.599-5.85,5.173c-2.023,1.576-3.9,2.963-5.621,4.161
		c-1.727,1.202-3.037,2.025-3.938,2.476c-1.05,0.751-1.988,1.201-2.811,1.349c-0.826,0.151-1.613,0.226-2.361,0.226
		c-2.852,0-4.724-1.536-5.623-4.611c-0.9-3.072-1.35-6.185-1.35-9.334c3.296-0.9,6.259-2.361,8.885-4.386
		c2.621-2.024,5.021-4.387,7.197-7.085c2.172-2.699,4.121-5.623,5.848-8.771c1.721-3.148,3.334-6.298,4.836-9.447
		C415.346,410.967,415.908,409.354,416.283,407.328 M377.258,356.385v-0.225c0-0.299,0.074-0.523,0.225-0.675
		c0,0.151-0.038,0.264-0.111,0.337c-0.078,0.078-0.113,0.19-0.113,0.338V356.385z M357.016,442.304c0-0.45,0.073-0.749,0.225-0.899
		C357.24,441.854,357.162,442.156,357.016,442.304 M328.451,426.221c3.447-6.371,8.772-11.206,15.969-14.506h0.225
		c0.748,0,1.349,0.077,1.799,0.225c-3.901,6.6-7.985,12.897-12.258,18.893c-4.273,6-8.736,11.396-13.382,16.195
		C322.452,439.531,325,432.596,328.451,426.221 M344.42,403.843c-4.351,0-8.585,1.612-12.708,4.835
		c-4.126,3.227-7.837,7.311-11.133,12.258c-3.3,4.949-5.961,10.459-7.985,16.532c-2.024,6.072-3.036,11.886-3.036,17.431
		c0.298,2.102,0.935,3.451,1.912,4.049c0.973,0.602,2.734,1.574,5.285,2.924h1.125c1.947,0,4.196-0.935,6.748-2.811
		c2.548-1.875,5.134-4.197,7.76-6.974c2.622-2.772,5.208-5.696,7.759-8.771c2.548-3.071,4.724-5.81,6.523-8.209
		c-0.151,1.349-0.225,2.698-0.225,4.048v4.273c0,3.901,0.187,7.535,0.562,10.909c0.373,3.373,1.012,6.298,1.912,8.771
		s2.098,4.421,3.599,5.849c1.498,1.422,3.296,2.135,5.398,2.135c2.25,0,4.498-0.786,6.747-2.36c2.25-1.575,4.573-3.563,6.973-5.961
		c2.396-2.396,4.836-5.022,7.311-7.872c2.474-2.847,4.982-5.623,7.534-8.322c0.598-1.047,0.899-2.023,0.899-2.924
		c0-2.396-1.201-3.598-3.599-3.598c-0.751,0-1.651,0.375-2.699,1.124c-0.899,0.899-2.288,2.474-4.161,4.724
		c-1.876,2.248-3.936,4.576-6.184,6.972c-2.25,2.4-4.5,4.499-6.748,6.298c-2.249,1.8-4.2,2.699-5.848,2.699
		c-1.203-2.547-1.8-5.771-1.8-9.672c0-1.496,0.073-2.997,0.226-4.498c0.146-1.497,0.297-2.997,0.449-4.498v0.449
		c0.899-5.697,1.834-11.357,2.812-16.98c0.973-5.623,1.984-11.281,3.035-16.981c3.896-6.747,7.271-13.53,10.121-20.354
		c2.846-6.822,5.321-13.383,7.423-19.682c0.597-1.946,1.311-4.121,2.137-6.521c0.821-2.396,1.573-4.871,2.249-7.422
		c0.674-2.549,1.271-5.096,1.799-7.648c0.523-2.548,0.787-4.948,0.787-7.197c0-2.998-0.562-5.398-1.688-7.198
		c-1.123-1.799-3.112-2.698-5.959-2.698c-2.851,0-5.324,1.275-7.423,3.823c-2.101,2.552-3.862,5.511-5.286,8.884
		c-1.426,3.374-2.624,6.86-3.598,10.459c-0.978,3.598-1.765,6.375-2.361,8.321c-1.951,6.748-3.789,13.573-5.512,20.469
		c-1.725,6.898-3.338,13.797-4.835,20.691l-0.899,2.024c-1.202-0.899-2.625-1.497-4.274-1.799H344.42z M268.622,406.092
		c-0.45-1.799-1.651-2.699-3.598-2.699c-1.35,0-2.288,0.602-2.812,1.8c-0.527,1.202-0.9,2.663-1.125,4.386
		c-0.225,1.725-0.376,3.525-0.45,5.397c-0.077,1.877-0.19,3.487-0.337,4.836v0.226c-0.601,2.551-1.349,5.25-2.249,8.096
		c-0.9,2.852-1.764,5.813-2.587,8.885c-0.826,3.076-1.539,6.15-2.137,9.222c-0.601,3.075-0.899,5.96-0.899,8.659
		c0.299,2.102,0.974,3.676,2.024,4.725c1.047,1.05,2.396,1.574,4.048,1.574c1.799,0,3.374-0.562,4.723-1.688
		c1.35-1.125,2.509-2.51,3.486-4.162c0.974-1.647,1.835-3.408,2.587-5.285c0.748-1.873,1.497-3.486,2.249-4.835
		c2.098-4.196,4.273-8.396,6.523-12.597c2.249-4.195,4.797-8.17,7.647-11.92c-0.302,2.102-0.601,4.65-0.899,7.646
		c-0.302,3.002-0.45,6.074-0.45,9.223c0,7.949,1.536,14.096,4.611,18.443c3.072,4.351,6.709,6.522,10.909,6.522
		c1.198,0,2.885-0.303,5.061-0.9c2.172-0.597,4.309-1.384,6.411-2.36c2.098-0.975,3.936-2.061,5.51-3.262
		c1.574-1.198,2.361-2.323,2.361-3.374c0-2.397-1.275-3.599-3.824-3.599c-0.302,0-0.9,0.151-1.799,0.45l-12.371,3.823l-3.599-2.698
		c-0.302-1.649-0.489-3.297-0.562-4.949c-0.078-1.647-0.113-3.296-0.113-4.948c0-6.297,0.598-12.557,1.8-18.78
		c1.198-6.22,1.799-12.558,1.799-19.005c0-1.8-0.752-3.673-2.249-5.623c-1.5-1.947-4.049-2.924-7.647-2.924
		c-1.5,0-3.261,0.977-5.285,2.924c-2.024,1.95-4.049,4.273-6.073,6.973c-2.024,2.698-3.936,5.51-5.735,8.434
		c-1.799,2.924-3.226,5.363-4.273,7.311c0-0.598,0.035-1.16,0.112-1.688c0.074-0.523,0.112-1.012,0.112-1.462
		c0-1.8-0.077-3.599-0.224-5.397c-0.151-1.8-0.302-3.6-0.45-5.398H268.622z M222.514,422.848c1.198-0.073,2.249,0.039,3.149,0.337
		v0.45c0,0.303-0.415,1.575-1.237,3.824c-0.826,2.249-1.912,4.649-3.261,7.197c-1.35,2.551-3.001,4.913-4.949,7.085
		c-1.95,2.175-4.125,3.411-6.522,3.712c0-4.646,0.372-9.408,1.125-14.283c0.749-4.87,2.171-9.481,4.273-13.832
		c0.45,2.102,1.947,3.823,4.499,5.173C220.339,422.812,221.313,422.926,222.514,422.848 M221.39,408.566l-1.125-2.925
		c-0.899-1.349-2.024-2.024-3.374-2.024c-1.95,0-4.087,1.539-6.41,4.611c-2.326,3.074-4.537,6.747-6.635,11.021
		c-2.102,4.272-3.862,8.697-5.286,13.27c-1.426,4.576-2.137,8.434-2.137,11.583c0,4.048,1.086,7.535,3.262,10.458
		c2.172,2.924,4.533,4.538,7.084,4.837c1.799-0.299,3.561-0.45,5.285-0.45c1.722,0,3.335-0.299,4.836-0.9
		c3.599-1.35,6.821-3.486,9.671-6.409c2.847-2.925,5.208-6.108,7.085-9.56c1.873-3.447,3.335-6.934,4.386-10.459
		c1.047-3.521,1.574-6.409,1.574-8.658c0-2.848-0.675-5.398-2.024-7.647c4.646-2.249,9.295-4.386,13.945-6.411
		c4.646-2.023,9.369-4.01,14.169-5.959c1.498-0.9,2.25-2.025,2.25-3.375c0-2.396-1.427-3.598-4.273-3.598
		c-6.899,1.651-13.983,3.524-21.254,5.623c-7.275,2.102-14.209,4.649-20.805,7.646c-0.151-0.147-0.225-0.299-0.225-0.449V408.566z
		 M83.852,411.266H81.49c-2.249,0-4.723,0.225-7.422,0.674c-2.699,0.449-5.324,0.675-7.872,0.675
		c-6.898,0-10.346-3.673-10.346-11.021c0-3.448,0.71-7.384,2.136-11.809c1.424-4.421,3.262-8.92,5.511-13.494
		c2.25-4.573,4.759-9.033,7.535-13.383c2.772-4.348,5.583-8.21,8.434-11.583c2.847-3.375,5.546-6.108,8.097-8.209
		c2.548-2.099,4.646-3.149,6.298-3.149c1.497,0,2.812,1.164,3.936,3.486c1.125,2.327,1.986,5.173,2.586,8.547
		c0.598,3.374,1.047,6.972,1.35,10.795c0.299,3.824,0.45,7.311,0.45,10.459c0,5.998-0.225,12.184-0.675,18.556
		c-0.45,6.374-0.978,12.595-1.575,18.668c-0.601,6.073-1.125,11.808-1.575,17.206c-0.45,5.397-0.674,10.121-0.674,14.17
		c0,2.249,0.074,5.174,0.225,8.772c0.147,3.599,0.636,7.084,1.462,10.457c0.822,3.374,2.059,6.26,3.711,8.66
		c1.648,2.396,4.048,3.599,7.197,3.599c1.497,0,2.773-0.601,3.824-1.8c1.046-1.201,2.322-3.3,3.823-6.298
		c2.998-5.695,5.735-11.47,8.209-17.318c2.474-5.848,4.948-11.844,7.422-17.992c2.474-6.147,5.134-12.445,7.984-18.894
		c2.847-6.445,6.22-13.046,10.121-19.793c0,4.048-0.077,8.659-0.225,13.832c-0.151,5.173-0.225,10.459-0.225,15.856
		c0,4.352,0.074,8.737,0.225,13.158c0.147,4.424,0.449,8.547,0.899,12.371c0.45,3.824,1.086,7.235,1.912,10.232
		c0.822,3.002,1.912,5.321,3.261,6.974c1.35,1.647,2.847,2.884,4.498,3.71c1.648,0.823,2.924,1.312,3.824,1.463
		c1.799,0,3.521-0.977,5.173-2.925c4.196-10.044,8.209-20.501,12.033-31.375c3.824-10.87,7.647-21.892,11.471-33.063
		c3.823-11.168,7.833-22.267,12.033-33.287c4.196-11.021,8.846-21.852,13.945-32.5c0.147-0.45,0.225-1.047,0.225-1.8
		c0-1.198-0.337-2.137-1.013-2.811c-0.675-0.675-1.461-1.012-2.361-1.012c-1.5,0-2.699,0.751-3.599,2.249
		c-3.001,5.7-5.925,11.886-8.772,18.556c-2.85,6.673-5.7,13.459-8.547,20.354c-2.85,6.9-5.588,13.76-8.209,20.581
		c-2.625,6.825-5.139,13.157-7.536,19.005c-2.551,6.15-5.25,12.258-8.096,18.331c-2.851,6.073-5.325,12.259-7.422,18.556
		c-0.752-3.148-1.202-6.522-1.35-10.121c-0.151-3.599-0.225-6.973-0.225-10.121c0-1.35,0.036-2.959,0.113-4.836
		c0.074-1.873,0.186-4.309,0.337-7.31c0.147-2.998,0.26-6.747,0.337-11.246c0.073-4.499,0.112-10.044,0.112-16.644v-2.024
		c0.298-0.597,0.45-1.575,0.45-2.924v-3.374c0-2.396-0.675-4.572-2.024-6.522c-1.349-1.946-3.451-2.925-6.297-2.925
		c-2.4,0-4.801,1.09-7.198,3.262c-2.4,2.176-4.8,5.061-7.197,8.66c-2.401,3.599-4.762,7.686-7.085,12.258
		c-2.327,4.575-4.576,9.26-6.748,14.057c-2.175,4.801-4.312,9.523-6.411,14.17c-2.101,4.65-4.125,8.771-6.073,12.371
		c-0.899,1.501-1.651,2.963-2.249,4.385c-0.601,1.428-1.276,2.89-2.024,4.387v-2.924v-4.948c0-9.295,0.41-19.192,1.236-29.689
		c0.823-10.493,1.238-20.766,1.238-30.813c0-3.896-0.114-7.721-0.338-11.471c-0.225-3.746-0.64-7.422-1.237-11.021
		c-0.303-2.249-0.864-4.983-1.687-8.209c-0.826-3.223-1.989-6.297-3.486-9.221c-1.5-2.924-3.374-5.398-5.623-7.422
		c-2.249-2.024-4.948-3.037-8.097-3.037c-3.001,0-5.925,1.012-8.771,3.037c-2.85,2.024-5.099,4.087-6.747,6.185
		c-2.699,3.149-5.813,7.422-9.334,12.821c-3.525,5.398-6.86,11.285-10.009,17.656c-3.149,6.375-5.813,12.82-7.985,19.343
		c-2.175,6.522-3.261,12.483-3.261,17.882c0,3.9,0.562,7.049,1.687,9.445c1.125,2.4,2.587,4.273,4.386,5.624
		c1.799,1.349,3.785,2.287,5.96,2.812c2.172,0.526,4.309,0.787,6.411,0.787c2.997,0,5.96-0.188,8.884-0.562
		c2.924-0.373,5.809-0.562,8.659-0.562c1.498,0,2.622-0.373,3.375-1.125c0.748-0.748,1.125-1.574,1.125-2.474
		c0-1.497-0.675-2.699-2.025-3.599C85.237,411.416,84.527,411.266,83.852,411.266"/>
	<path clip-path="url(#SVGID_2_)" fill="#FFFFFF" d="M582.152,289.585c-0.225,2.85-0.338,5.773-0.338,8.771
		c0,2.249,0.187,4.8,0.562,7.647c0.373,2.85,1.048,5.549,2.024,8.097c0.974,2.548,2.249,4.723,3.824,6.522
		c1.573,1.799,3.634,2.7,6.185,2.7c2.699,0,5.623-1.125,8.772-3.375c3.148-2.249,6.298-5.096,9.446-8.546
		c3.148-3.448,6.186-7.345,9.109-11.696c2.923-4.348,5.432-8.547,7.533-12.595c0.75-1.048,1.125-1.947,1.125-2.699
		c0-1.047-0.375-1.912-1.125-2.586c-0.752-0.675-1.65-1.012-2.697-1.012c-1.052,0-1.951,0.376-2.7,1.125
		c-5.848,9.147-11.357,16.159-16.53,21.03c-5.174,4.874-8.586,7.31-10.234,7.31c-0.45,0-0.787-0.562-1.013-1.687
		c-0.225-1.125-0.375-2.474-0.448-4.049c-0.079-1.574-0.152-3.11-0.227-4.61c-0.077-1.498-0.111-2.699-0.111-3.599
		c0-7.197,0.597-14.88,1.799-23.054c1.199-8.171,2.621-15.857,4.273-23.054c1.947-0.749,4.723-1.462,8.322-2.137
		c3.598-0.674,7.158-1.384,10.684-2.137c3.521-0.749,6.596-1.574,9.221-2.474c2.622-0.899,3.936-2.024,3.936-3.374
		c0-1.35-0.751-2.324-2.248-2.924c-1.501-0.598-3.339-1.012-5.511-1.237c-2.175-0.225-4.425-0.337-6.748-0.337h-5.96
		c-1.35,0-2.699,0.039-4.049,0.113c-1.349,0.077-2.775,0.112-4.272,0.112c1.349-6.895,2.587-12.855,3.71-17.881
		c1.125-5.022,2.099-9.257,2.925-12.708c0.823-3.448,1.462-6.259,1.911-8.435c0.451-2.172,0.676-3.859,0.676-5.061
		c0-2.25-1.203-3.374-3.6-3.374c-2.399,0-4.424,1.202-6.072,3.599c-1.651,2.4-3.037,5.173-4.16,8.322
		c-1.125,3.148-2.024,6.263-2.699,9.334c-0.676,3.074-1.238,5.285-1.688,6.635c-0.899,3.148-1.652,5.847-2.248,8.096
		c-0.602,2.25-1.351,4.312-2.25,6.186c-0.9,1.876-2.025,3.675-3.374,5.397c-1.35,1.726-3.226,3.638-5.623,5.735
		c-3.9,1.652-7.31,3.486-10.233,5.511s-4.387,4.161-4.387,6.41c0,2.4,0.9,3.598,2.699,3.598c1.199,0,2.959-0.45,5.286-1.349
		c2.323-0.9,6.185-1.947,11.583-3.148c-1.051,4.8-1.912,9.559-2.586,14.282c-0.676,4.723-1.237,9.559-1.688,14.506
		C582.637,284.039,582.377,286.738,582.152,289.585 M527.162,277.214c3.599-3.746,7.197-7.422,10.795-11.021
		c0,4.65,0.373,9.373,1.125,14.17c0.749,4.801,1.574,9.896,2.475,15.294c-1.35,0.752-3.037,1.799-5.061,3.148
		c-2.024,1.35-4.05,2.924-6.072,4.724c-2.025,1.799-3.751,3.675-5.174,5.623c-1.428,1.951-2.138,3.824-2.138,5.623
		c0,2.998,1.125,5.433,3.374,7.31c2.25,1.874,5.096,2.812,8.548,2.812c2.249,0,4.646-0.45,7.196-1.349
		c2.549-0.9,4.91-2.4,7.086-4.499c2.172-2.101,3.971-4.835,5.398-8.209c1.422-3.374,2.137-7.458,2.137-12.258
		c2.396-1.497,5.246-3.071,8.546-4.724c3.297-1.648,6.41-3.261,9.334-4.835c2.925-1.575,5.434-3.11,7.535-4.611
		c2.098-1.497,3.147-2.773,3.147-3.823c0-0.9-0.302-1.723-0.898-2.474c-0.602-0.749-1.5-1.125-2.699-1.125
		c-0.45,0-1.124,0.151-2.023,0.45c-4.05,1.799-8.137,3.599-12.259,5.398c-4.126,1.799-8.286,3.75-12.483,5.848
		c-1.05-3.897-1.95-7.647-2.699-11.246c-0.751-3.599-1.123-7.345-1.123-11.246c0-7.345,1.046-14.767,3.148-22.267
		c0-2.397-0.562-4.196-1.688-5.398c-1.124-1.198-2.586-1.799-4.386-1.799c-0.601,0-1.765,0.303-3.485,0.9
		c-1.727,0.601-2.588,1.651-2.588,3.148c-1.201,2.249-3.148,5.099-5.848,8.547c-2.699,3.451-5.622,7.197-8.771,11.246
		c-3.148,4.048-6.225,8.287-9.223,12.708c-3,4.425-5.396,8.659-7.195,12.708v1.125c0,1.201,0.337,2.175,1.012,2.924
		c0.674,0.752,1.535,1.125,2.586,1.125c1.199,0,2.249-0.597,3.148-1.799C520.488,285.013,523.562,280.964,527.162,277.214
		 M484.428,276.652c1.197-0.073,2.249,0.039,3.148,0.337v0.45c0,0.302-0.414,1.574-1.236,3.823c-0.826,2.249-1.912,4.65-3.262,7.197
		c-1.35,2.552-3.002,4.913-4.948,7.085c-1.95,2.175-4.126,3.413-6.522,3.711c0-4.646,0.372-9.408,1.125-14.282
		c0.748-4.871,2.172-9.481,4.272-13.832c0.45,2.101,1.948,3.823,4.499,5.173C482.252,276.617,483.227,276.729,484.428,276.652
		 M483.303,262.37l-1.125-2.924c-0.898-1.35-2.023-2.024-3.373-2.024c-1.951,0-4.086,1.54-6.41,4.611
		c-2.326,3.075-4.537,6.747-6.635,11.021c-2.102,4.273-3.862,8.697-5.286,13.27c-1.427,4.576-2.137,8.435-2.137,11.583
		c0,4.048,1.087,7.535,3.262,10.458c2.172,2.924,4.534,4.537,7.085,4.836c1.799-0.299,3.56-0.45,5.285-0.45
		c1.723,0,3.335-0.299,4.836-0.899c3.599-1.35,6.82-3.487,9.672-6.411c2.846-2.924,5.209-6.108,7.084-9.559
		c1.874-3.447,3.336-6.934,4.387-10.458c1.047-3.521,1.574-6.411,1.574-8.66c0-2.846-0.676-5.397-2.024-7.647
		c4.646-2.25,9.296-4.386,13.944-6.41c4.646-2.024,9.369-4.01,14.17-5.96c1.497-0.899,2.25-2.024,2.25-3.374
		c0-2.397-1.428-3.598-4.273-3.598c-6.898,1.651-13.984,3.524-21.255,5.622c-7.274,2.102-14.208,4.65-20.805,7.647
		c-0.151-0.147-0.226-0.299-0.226-0.45V262.37z M333.508,244.602c-2.4-4.797-3.599-9.594-3.599-14.395
		c0-4.797,1.61-10.009,4.835-15.632c3.223-5.623,8.358-11.506,15.407-17.656c3.897-3.149,7.232-5.433,10.01-6.86
		c2.771-1.423,5.207-2.136,7.309-2.136c2.998,0,5.061,1.314,6.186,3.936c1.124,2.625,1.687,6.038,1.687,10.233
		c0,3.3-0.302,6.787-0.899,10.459c-0.601,3.676-1.427,7.31-2.474,10.909c-1.652,5.847-3.188,10.76-4.612,14.732
		c-1.426,3.975-2.923,7.686-4.498,11.133c-1.574,3.451-3.299,7.011-5.173,10.683c-1.876,3.677-4.161,8.287-6.86,13.833
		c-1.202,2.4-2.625,5.025-4.273,7.872c-1.651,2.851-3.226,5.813-4.723,8.885c-1.5,3.075-2.85,6.111-4.048,9.109
		c-1.202,3.001-1.876,5.848-2.024,8.547c0.451,4.8,2.773,7.197,6.973,7.197c1.198,0,2.699-0.523,4.499-1.574
		c4.498-4.499,8.469-9.446,11.92-14.845c3.447-5.398,6.709-10.943,9.785-16.644c3.07-5.697,6.107-11.394,9.108-17.094
		c2.998-5.697,6.298-11.168,9.896-16.418c0.598-1.047,1.835-2.734,3.711-5.061c1.872-2.323,3.897-4.685,6.073-7.085
		c2.172-2.396,4.309-4.533,6.41-6.41c2.098-1.874,3.746-2.812,4.947-2.812c0.299,1.202,0.523,2.474,0.675,3.824
		c0.147,1.35,0.225,2.625,0.225,3.824c0,4.8-0.601,9.598-1.799,14.395c-0.753,2.699-1.651,6.185-2.699,10.458
		c-1.05,4.274-2.101,8.737-3.148,13.383c-1.051,4.649-1.951,9.221-2.698,13.72c-0.753,4.498-1.125,8.322-1.125,11.471
		c0,2.4,0.523,4.463,1.574,6.185c1.047,1.726,2.475,2.586,4.273,2.586c1.496,0,3.896-1.799,7.197-5.398
		c3.296-3.599,6.934-7.907,10.908-12.933c3.972-5.021,7.872-10.347,11.695-15.969c3.824-5.624,7.085-10.459,9.784-14.507
		l-0.675,8.546c-0.303,2.102-0.601,4.762-0.899,7.985c-0.302,3.227-0.64,6.712-1.013,10.458c-0.375,3.75-0.674,7.686-0.898,11.808
		c-0.226,4.126-0.338,8.209-0.338,12.258c0,6.298,0.373,11.995,1.124,17.094c0.749,5.096,2.172,8.919,4.274,11.471
		c0.748,0.899,1.947,1.648,3.598,2.249c1.649,0.597,2.848,0.899,3.599,0.899c1.497,0,2.622-0.337,3.374-1.012
		c0.749-0.675,1.124-1.462,1.124-2.361c0-1.203-0.674-2.401-2.022-3.599l-3.6-1.125c-1.051-3.599-1.764-7.275-2.137-11.021
		c-0.376-3.75-0.562-7.57-0.562-11.471c0-7.197,0.45-14.356,1.35-21.479c0.899-7.12,1.723-14.058,2.474-20.805
		c0.299-2.548,0.788-5.434,1.462-8.66c0.676-3.222,1.014-6.41,1.014-9.558c0-2.699-0.489-5.096-1.463-7.198
		c-0.978-2.098-2.514-3.148-4.611-3.148h-1.237c-0.527,0-1.011,0.151-1.462,0.45c-6.448,8.849-11.547,15.821-15.295,20.917
		c-3.748,5.099-6.561,8.922-8.434,11.47c-1.876,2.552-3.148,4.238-3.824,5.061c-0.674,0.826-1.162,1.461-1.461,1.912
		c-0.752,0.752-1.389,1.539-1.912,2.361c-0.527,0.826-1.162,1.613-1.912,2.362l0.9-2.474c1.648-7.647,3.521-15.407,5.623-23.279
		c2.098-7.872,3.148-15.706,3.148-23.503c0-14.542-3.975-21.817-11.92-21.817c-3.451,0-7.613,1.5-12.483,4.499
		c-4.874,3.001-9.861,7.348-14.956,13.045l-1.125,1.124c1.496-4.048,2.699-8.508,3.598-13.382c0.9-4.871,1.35-9.932,1.35-15.182
		c0-9.295-1.389-15.779-4.16-19.455c-2.776-3.672-6.562-5.51-11.359-5.51c-3.45,0-7.196,0.787-11.245,2.361
		c-4.048,1.575-7.984,3.563-11.808,5.96c-3.824,2.4-7.31,4.987-10.458,7.76c-3.149,2.776-5.549,5.285-7.197,7.534
		c-4.049,5.251-6.973,9.935-8.772,14.058c-1.799,4.126-2.699,8.062-2.699,11.808c0,4.948,1.35,10.009,4.049,15.182
		c2.698,5.173,6.297,11.51,10.796,19.005c0.899,1.651,2.172,2.474,3.824,2.474c0.899,0,1.687-0.337,2.362-1.012
		c0.674-0.675,1.012-1.687,1.012-3.037C338.755,254.723,335.905,249.402,333.508,244.602 M262.215,261.47
		c-0.601,1.799-1.276,3.637-2.024,5.511c-0.752,1.876-1.575,3.599-2.474,5.173c-0.9,1.575-1.652,2.889-2.249,3.936
		c-2.699,4.65-4.948,7.798-6.748,9.447c0.598-2.396,1.423-5.021,2.474-7.872c1.048-2.847,2.172-5.623,3.374-8.322
		c1.199-2.699,2.548-5.208,4.049-7.534c1.497-2.324,2.998-4.084,4.498-5.286C263.114,258.022,262.812,259.671,262.215,261.47
		 M275.598,261.133c0.372-2.024,0.562-4.083,0.562-6.186c0-3.598-0.752-6.783-2.249-9.559c-1.501-2.772-4.351-4.16-8.547-4.16
		c-4.2,0-7.949,1.388-11.246,4.16c-3.3,2.776-6.151,6.15-8.547,10.122c-2.399,3.975-4.386,8.136-5.96,12.483
		c-1.575,4.351-2.812,8.097-3.712,11.246c-0.6,1.951-0.976,3.863-1.124,5.736c-0.151,1.876-0.225,3.711-0.225,5.51
		c-0.751,0.752-1.124,1.652-1.124,2.699c0,1.202,0.45,2.024,1.349,2.474c0,3.148,0.373,6.185,1.124,9.109
		c0.749,2.924,1.912,5.51,3.487,7.759c1.574,2.25,3.561,4.049,5.96,5.398c2.396,1.349,5.247,2.024,8.547,2.024
		c1.497,0,3.335-0.601,5.511-1.799c2.172-1.202,3.486-1.876,3.936-2.024c1.35-0.601,3.262-1.947,5.735-4.048
		c2.474-2.099,4.871-4.348,7.197-6.748c2.324-2.397,4.386-4.724,6.186-6.973c1.799-2.249,2.699-3.897,2.699-4.948
		c0-1.199-0.45-2.25-1.35-3.149c-0.9-0.899-1.877-1.35-2.924-1.35c-0.899,0-1.575,0.527-2.024,1.575
		c-0.9,1.951-2.288,3.862-4.161,5.735c-1.876,1.877-3.823,3.599-5.848,5.173c-2.025,1.574-3.901,2.962-5.623,4.161
		c-1.726,1.202-3.036,2.024-3.936,2.474c-1.051,0.752-1.989,1.202-2.812,1.35c-0.826,0.151-1.613,0.225-2.361,0.225
		c-2.851,0-4.724-1.536-5.624-4.61c-0.899-3.071-1.349-6.186-1.349-9.334c3.296-0.899,6.259-2.362,8.884-4.386
		c2.622-2.024,5.022-4.386,7.197-7.085c2.172-2.699,4.123-5.623,5.848-8.771c1.722-3.149,3.335-6.298,4.836-9.446
		C274.659,264.77,275.221,263.157,275.598,261.133 M209.133,205.69c1.498-4.347,3.223-8.434,5.173-12.258
		c1.947-3.823,4.161-7.084,6.635-9.784c2.474-2.699,5.135-4.049,7.985-4.049c1.497,0,2.734,0.45,3.712,1.35
		c0.973,0.899,1.461,2.101,1.461,3.598c0,6.15-0.899,11.886-2.699,17.207c-1.799,5.324-4.161,10.385-7.085,15.182
		c-2.924,4.801-6.297,9.412-10.121,13.833c-3.823,4.425-7.76,8.659-11.808,12.708l-4.948,4.723c1.047-5.247,2.21-10.42,3.486-15.519
		c1.272-5.096,2.733-10.27,4.386-15.52C206.357,213.865,207.633,210.041,209.133,205.69 M176.633,291.722
		c-0.527,4.126-0.788,8.209-0.788,12.258c0,1.799,0.074,3.598,0.225,5.398c0.147,1.799,0.485,3.486,1.012,5.06
		c0.524,1.575,1.272,2.847,2.25,3.824c0.973,0.974,2.21,1.462,3.711,1.462c1.35,0,2.699-0.45,4.048-1.35
		c2.098-2.4,3.859-5.022,5.286-7.872c1.423-2.847,2.811-5.658,4.161-8.434c1.349-2.773,2.847-5.472,4.499-8.097
		c1.648-2.622,3.746-4.983,6.297-7.085c0.45,1.35,0.822,3.75,1.125,7.197c0.299,3.451,0.822,7.011,1.574,10.684
		c0.749,3.676,1.873,6.899,3.374,9.671c1.497,2.773,3.599,4.162,6.298,4.162c1.35,0,2.811-0.415,4.386-1.237
		c1.574-0.826,3.037-1.838,4.386-3.036c1.35-1.198,2.474-2.397,3.374-3.599c0.899-1.198,1.349-2.172,1.349-2.924
		c0-2.396-1.202-3.598-3.598-3.598c-1.203,0-2.664,0.675-4.386,2.024c-1.727,1.349-3.188,2.552-4.386,3.599
		c-0.152-0.147-0.45-0.225-0.9-0.225c-0.9-3.296-1.35-6.596-1.35-9.896c0-3.296-0.112-6.484-0.337-9.559
		c-0.225-3.072-0.899-5.848-2.024-8.322s-3.413-4.46-6.86-5.96c-0.601-0.147-1.275-0.225-2.024-0.225
		c-1.202,0-2.587,0.489-4.161,1.462c-1.575,0.978-3.114,2.137-4.611,3.487c-1.501,1.349-2.889,2.776-4.161,4.273
		c-1.276,1.5-2.288,2.699-3.037,3.598c0.45-4.347,0.973-8.694,1.574-13.045c0.598-4.347,1.272-8.694,2.025-13.045l2.024-1.574
		c5.697-4.797,11.505-9.896,17.431-15.294c5.921-5.397,11.281-11.246,16.082-17.543c4.797-6.298,8.733-13.08,11.808-20.355
		c3.071-7.271,4.611-15.104,4.611-23.503c0-5.697-1.687-10.308-5.061-13.833c-3.374-3.521-7.46-5.286-12.257-5.286
		c-3.75,0-7.236,0.978-10.459,2.924c-3.227,1.95-6.185,4.386-8.884,7.31c-2.699,2.924-5.099,6.186-7.197,9.784
		c-2.102,3.599-3.901,7.05-5.398,10.346c-3.001,6.6-5.51,13.382-7.534,20.355c-2.024,6.972-3.75,14.057-5.173,21.254
		c-1.427,7.197-2.664,14.434-3.711,21.705c-1.051,7.275-2.102,14.507-3.149,21.705C177.645,283.814,177.157,287.6,176.633,291.722
		 M130.523,307.353c-3.226,1.799-6.562,2.699-10.009,2.699c-2.102,0-4.463-0.411-7.085-1.236c-2.625-0.823-5.06-1.947-7.31-3.374
		c-2.249-1.423-4.126-3.149-5.623-5.173c-1.5-2.025-2.249-4.309-2.249-6.86c0-2.25,0.823-4.049,2.474-5.398
		c2.998-2.249,6.371-4.196,10.121-5.848c3.746-1.648,7.647-2.959,11.696-3.936c4.048-0.974,8.132-1.723,12.258-2.25
		c4.122-0.523,8.058-0.935,11.808-1.237c-0.899,4.2-1.989,8.287-3.261,12.258c-1.275,3.975-2.889,7.76-4.836,11.358
		C136.406,302.556,133.746,305.554,130.523,307.353 M170.896,200.293c-0.45-1.648-1.012-2.699-1.687-3.149
		c-0.675-0.45-1.687-0.675-3.036-0.675c-1.35,0.45-2.513,1.651-3.486,3.599c-0.977,1.951-1.799,4.161-2.474,6.635
		c-0.675,2.474-1.236,5.061-1.687,7.76c-0.45,2.698-0.9,5.025-1.35,6.972l-9.221,3.599c-7.197,2.85-14.844,5.212-22.941,7.085
		c-8.097,1.877-15.969,2.812-23.616,2.812c-3.149,0-6-0.45-8.547-1.35c-2.551-0.899-3.823-3.071-3.823-6.523
		c0-4.196,1.237-7.872,3.711-11.021c2.474-3.149,5.545-5.883,9.222-8.21c3.672-2.323,7.569-4.273,11.695-5.847
		c4.123-1.575,7.833-2.812,11.133-3.712c10.796-3.296,21.74-5.735,32.838-7.31c11.095-1.574,22.042-2.361,32.838-2.361
		c1.947,0,3.711,0.077,5.286,0.225c1.574,0.151,3.223,0.302,4.948,0.45c1.722,0.151,3.633,0.302,5.735,0.45
		c2.098,0.151,4.646,0.225,7.647,0.225c1.799,0,3.374-0.112,4.723-0.337c1.35-0.225,2.172-0.861,2.475-1.912v-0.675
		c-1.35-1.947-3.599-3.335-6.748-4.161c-3.148-0.823-6.149-1.536-8.997-2.137c-3.001-0.598-6.786-1.047-11.358-1.349
		c-4.576-0.299-9.709-0.45-15.407-0.45c-7.05,0-14.472,0.302-22.267,0.899c-7.798,0.601-15.52,1.613-23.166,3.037
		c-7.647,1.427-14.957,3.3-21.93,5.623c-6.973,2.327-13.123,5.212-18.443,8.66c-5.324,3.451-9.56,7.535-12.708,12.258
		c-3.148,4.723-4.723,10.16-4.723,16.306c0.298,8.399,2.811,14.208,7.535,17.431c4.723,3.226,10.458,4.835,17.206,4.835
		c4.196,0,8.621-0.484,13.271-1.461c4.646-0.974,9.222-2.172,13.72-3.599c4.499-1.423,8.807-2.998,12.933-4.723
		c4.123-1.722,7.76-3.335,10.909-4.836l4.048-1.575l-6.972,35.312h-3.599c-3.901,0-7.798,0.225-11.695,0.675
		c-3.901,0.45-7.873,1.051-11.921,1.8c-3.001,0.45-6.561,1.35-10.684,2.699c-4.126,1.35-8.062,3.114-11.808,5.286
		c-3.75,2.175-6.938,4.801-9.559,7.872c-2.625,3.075-3.936,6.562-3.936,10.458c0,3.599,1.085,7.124,3.261,10.571
		c2.172,3.451,5.022,6.487,8.547,9.109c3.521,2.622,7.496,4.759,11.921,6.41c4.421,1.648,8.807,2.474,13.157,2.474
		c5.398,0,10.009-1.051,13.832-3.149c3.824-2.102,7.008-4.762,9.559-7.984c2.548-3.222,4.611-6.821,6.186-10.796
		c1.574-3.971,2.959-7.907,4.161-11.809c3.599-13.045,6.073-26.09,7.422-39.135l6.297-47.232c0.299-0.299,0.636-0.749,1.012-1.35
		c0.373-0.597,0.562-1.272,0.562-2.024V200.293z"/>
	<path clip-path="url(#SVGID_2_)" fill="#FFFFFF" d="M393.609,90.313c-0.807,3.733-3.616,6.999-8.436,9.798
		c-6.109,3.423-9.723,5.756-10.846,6.999c13.334,10.888,19.763,15.864,19.281,14.931c-1.929,6.689-5.947,9.255-12.051,7.698
		c-2.892-0.776-7.874-3.342-14.942-7.698c-1.771,1.247-2.41,4.979-1.929,11.198c0.32,6.223-0.323,9.956-1.928,11.198
		c-1.445-0.31-2.975,0.08-4.579,1.167c-1.446,0.933-3.133,1.167-5.061,0.7c-2.41-1.553-3.698-4.976-3.856-10.265
		c-0.162-1.399-0.162-3.733,0-6.999c0.158-3.11,0.158-5.442,0-6.999c0.964-0.153-4.338,2.18-15.907,6.999
		c-5.784,2.333-10.043,0.623-12.773-5.133c0.64-4.199,2.971-7.542,6.989-10.032c1.766-1.086,5.784-2.72,12.05-4.899
		c-0.964-2.333-4.82-5.132-11.568-8.399c-5.626-2.642-8.115-6.685-7.471-12.131c3.212-3.576,7.712-4.432,13.496-2.566
		c1.928,0.624,4.338,1.713,7.23,3.267c3.694,1.866,5.701,2.879,6.025,3.033c1.604-10.576,2.892-16.951,3.856-19.131
		c2.568-6.375,7.068-6.766,13.496-1.167V92.18c1.123-0.154,5.623-2.333,13.497-6.533c4.819-2.486,9.316-2.176,13.496,0.934
		C391.357,88.76,392.001,90.003,393.609,90.313"/>
	<path clip-path="url(#SVGID_2_)" fill="#FFFFFF" d="M476.311,174.213c-2.312,1.491-5.406,1.724-9.29,0.694
		c-4.854-1.368-7.886-2.021-9.091-1.96c1.246,12.342,1.986,18.151,2.217,17.431c-4.391,2.426-7.746,1.686-10.062-2.217
		c-1.077-1.869-2.309-5.715-3.69-11.536c-1.537-0.266-3.765,1.309-6.688,4.723c-3.008,3.333-5.236,4.907-6.688,4.724
		c-0.579-0.896-1.557-1.476-2.928-1.74c-1.212-0.261-2.19-1.002-2.935-2.222c-0.438-2.019,0.651-4.419,3.266-7.194
		c0.631-0.796,1.818-1.984,3.564-3.566c1.666-1.504,2.854-2.692,3.566-3.566c0.569,0.414-3.32-1.1-11.67-4.538
		c-4.135-1.758-5.435-4.799-3.893-9.123c2.466-1.813,5.355-2.329,8.672-1.551c1.453,0.347,4.332,1.562,8.635,3.644
		c0.698-1.68,0.16-5.071-1.614-10.173c-1.521-4.212-0.729-7.541,2.374-9.987c3.459-0.186,6.188,1.671,8.184,5.569
		c0.666,1.3,1.338,3.083,2.02,5.347c0.932,2.833,1.438,4.372,1.525,4.615c6.205-4.57,10.109-7.163,11.711-7.782
		c4.557-1.94,7.049,0.154,7.471,6.282l-10.341,10.341c0.649,0.494,4.054,1.676,10.204,3.548c3.723,1.189,5.855,3.638,6.4,7.352
		C475.955,172.274,475.65,173.236,476.311,174.213"/>
	<path clip-path="url(#SVGID_2_)" fill="#FFFFFF" d="M300.624,132.386c-1.657,1.063-3.883,1.217-6.681,0.459
		c-3.5-1.006-5.683-1.489-6.549-1.45c0.951,8.884,1.509,13.068,1.671,12.55c-3.148,1.726-5.565,1.179-7.249-1.64
		c-0.784-1.35-1.687-4.122-2.706-8.316c-1.107-0.198-2.703,0.926-4.791,3.369c-2.149,2.385-3.746,3.507-4.791,3.368
		c-0.421-0.646-1.126-1.068-2.114-1.264c-0.874-0.193-1.581-0.73-2.122-1.611c-0.323-1.454,0.449-3.176,2.317-5.162
		c0.451-0.569,1.3-1.42,2.549-2.55c1.191-1.075,2.042-1.925,2.55-2.549c0.412,0.299-2.394-0.806-8.416-3.317
		c-2.983-1.283-3.932-3.477-2.842-6.58c1.767-1.294,3.844-1.652,6.232-1.077c1.047,0.256,3.124,1.143,6.229,2.659
		c0.494-1.205,0.092-3.647-1.208-7.326c-1.112-3.038-0.557-5.428,1.665-7.175c2.487-0.119,4.458,1.229,5.912,4.042
		c0.484,0.938,0.976,2.224,1.477,3.856c0.682,2.042,1.054,3.152,1.117,3.327c4.444-3.261,7.242-5.108,8.392-5.547
		c3.27-1.375,5.071,0.142,5.402,4.552l-7.394,7.395c0.469,0.358,2.923,1.223,7.357,2.598c2.683,0.872,4.228,2.643,4.637,5.317
		C300.359,130.99,300.144,131.68,300.624,132.386"/>
	<path clip-path="url(#SVGID_2_)" fill="#FFFFFF" d="M305.996,85.786c-1.35,0-2.474,0.45-3.374,1.35c-0.9,0.9-1.35,1.951-1.35,3.149
		c0,1.051,0.485,2.137,1.462,3.262c0.973,1.124,2.136,1.687,3.486,1.687c1.199,0,2.211-0.485,3.037-1.462
		c0.822-0.974,1.237-2.136,1.237-3.486c0-1.047-0.376-2.172-1.125-3.374C308.47,86.162,307.345,85.786,305.996,85.786"/>
	<path clip-path="url(#SVGID_2_)" fill="#FFFFFF" d="M305.996,154.462c-1.35,0-2.474,0.449-3.374,1.35
		c-0.9,0.899-1.35,1.95-1.35,3.148c0,1.051,0.485,2.137,1.462,3.261c0.973,1.125,2.136,1.687,3.486,1.687
		c1.199,0,2.211-0.485,3.037-1.462c0.822-0.974,1.237-2.137,1.237-3.486c0-1.047-0.376-2.172-1.125-3.374
		C308.47,154.838,307.345,154.462,305.996,154.462"/>
	<path clip-path="url(#SVGID_2_)" fill="#FFFFFF" d="M386.846,144.927c-2.038,0-3.734,0.68-5.093,2.038
		c-1.358,1.357-2.038,2.943-2.038,4.752c0,1.586,0.732,3.226,2.207,4.922c1.471,1.698,3.225,2.546,5.263,2.546
		c1.809,0,3.336-0.732,4.583-2.207c1.24-1.47,1.866-3.225,1.866-5.262c0-1.58-0.567-3.278-1.697-5.092
		C390.578,145.495,388.881,144.927,386.846,144.927"/>
	<path clip-path="url(#SVGID_2_)" fill="#FFFFFF" d="M509.683,159.185c-1.35,0-2.475,0.45-3.374,1.35
		c-0.9,0.899-1.35,1.95-1.35,3.148c0,1.051,0.484,2.137,1.463,3.262c0.973,1.125,2.136,1.687,3.484,1.687
		c1.199,0,2.211-0.484,3.037-1.461c0.822-0.973,1.238-2.137,1.238-3.487c0-1.046-0.377-2.171-1.125-3.373
		C512.156,159.561,511.031,159.185,509.683,159.185"/>
</g>
</svg>
